<svg width="24" height="24" viewBox="0 0 24 24" xmlns="http://www.w3.org/2000/svg">
  <path fill="#CCCCCC" d="M17,2 L7,2 C5.9,2 5,2.9 5,4 L5,20 C5,21.1 5.9,22 7,22 L17,22 C18.1,22 19,21.1 19,20 L19,4 C19,2.9 18.1,2 17,2 Z M14,17 L10,17 C9.45,17 9,16.55 9,16 C9,15.45 9.45,15 10,15 L14,15 C14.55,15 15,15.45 15,16 C15,16.55 14.55,17 14,17 Z M14,13 L10,13 C9.45,13 9,12.55 9,12 C9,11.45 9.45,11 10,11 L14,11 C14.55,11 15,11.45 15,12 C15,12.55 14.55,13 14,13 Z M14,9 L7,9 C6.45,9 6,8.55 6,8 C6,7.45 6.45,7 7,7 L14,7 C14.55,7 15,7.45 15,8 C15,8.55 14.55,9 14,9 Z" />
</svg>